<?xml version="1.0" encoding="utf-8" ?>
<svg baseProfile="tiny" height="100%" version="1.2" width="100%" xmlns="http://www.w3.org/2000/svg" xmlns:ev="http://www.w3.org/2001/xml-events" xmlns:xlink="http://www.w3.org/1999/xlink"><defs /><path d="M 242,262 L 241,263 L 233,263 L 232,264 L 228,264 L 227,265 L 222,265 L 221,266 L 218,266 L 217,267 L 215,267 L 214,268 L 212,268 L 211,269 L 209,269 L 208,270 L 206,270 L 205,271 L 203,271 L 202,272 L 201,272 L 200,273 L 199,273 L 198,274 L 196,274 L 194,276 L 193,276 L 192,277 L 191,277 L 190,278 L 189,278 L 188,279 L 187,279 L 186,280 L 185,280 L 183,282 L 182,282 L 180,284 L 179,284 L 177,286 L 176,286 L 172,290 L 171,290 L 165,296 L 164,296 L 158,302 L 158,303 L 153,308 L 153,309 L 149,313 L 149,314 L 147,316 L 147,317 L 145,319 L 145,320 L 143,322 L 143,323 L 142,324 L 142,325 L 140,327 L 140,328 L 139,329 L 139,330 L 138,331 L 138,332 L 137,333 L 137,334 L 136,335 L 136,337 L 135,338 L 135,339 L 134,340 L 134,342 L 133,343 L 133,345 L 132,346 L 132,348 L 131,349 L 131,351 L 130,352 L 130,355 L 129,356 L 129,359 L 128,360 L 128,364 L 127,365 L 127,375 L 126,376 L 126,488 L 127,489 L 127,498 L 128,499 L 128,503 L 129,504 L 129,508 L 130,509 L 130,512 L 131,513 L 131,516 L 132,517 L 132,518 L 133,519 L 133,521 L 134,522 L 134,524 L 135,525 L 135,527 L 136,528 L 136,529 L 137,530 L 137,531 L 138,532 L 138,533 L 139,534 L 139,535 L 140,536 L 140,537 L 141,538 L 141,539 L 142,540 L 142,541 L 144,543 L 144,544 L 145,545 L 145,546 L 147,548 L 147,549 L 150,552 L 150,553 L 153,556 L 153,557 L 170,574 L 171,574 L 175,578 L 176,578 L 178,580 L 179,580 L 181,582 L 182,582 L 184,584 L 185,584 L 187,586 L 188,586 L 189,587 L 190,587 L 191,588 L 192,588 L 193,589 L 194,589 L 195,590 L 196,590 L 197,591 L 198,591 L 199,592 L 200,592 L 201,593 L 203,593 L 204,594 L 205,594 L 206,595 L 205,596 L 205,620 L 206,621 L 205,622 L 206,623 L 206,631 L 205,632 L 206,633 L 206,663 L 207,664 L 207,667 L 208,668 L 208,669 L 209,670 L 209,671 L 210,672 L 210,673 L 214,677 L 215,677 L 216,678 L 217,678 L 218,679 L 219,679 L 220,680 L 222,680 L 223,681 L 230,681 L 231,680 L 234,680 L 235,679 L 237,679 L 239,677 L 240,677 L 242,675 L 243,675 L 247,671 L 248,671 L 252,667 L 253,667 L 257,663 L 258,663 L 263,658 L 264,658 L 268,654 L 269,654 L 273,650 L 274,650 L 277,647 L 278,647 L 282,643 L 283,643 L 287,639 L 288,639 L 292,635 L 293,635 L 298,630 L 299,630 L 303,626 L 304,626 L 307,623 L 308,623 L 312,619 L 313,619 L 318,614 L 319,614 L 323,610 L 324,610 L 327,607 L 328,607 L 333,602 L 334,602 L 335,601 L 420,601 L 422,603 L 422,605 L 423,606 L 423,609 L 424,610 L 424,611 L 425,612 L 425,614 L 426,615 L 426,617 L 427,618 L 427,620 L 428,621 L 428,622 L 429,623 L 429,624 L 430,625 L 430,627 L 431,628 L 431,629 L 433,631 L 433,632 L 434,633 L 434,634 L 435,635 L 435,636 L 437,638 L 437,639 L 438,640 L 438,641 L 440,643 L 440,644 L 443,647 L 443,648 L 447,652 L 447,653 L 463,669 L 464,669 L 468,673 L 469,673 L 472,676 L 473,676 L 475,678 L 476,678 L 477,679 L 478,679 L 480,681 L 481,681 L 482,682 L 483,682 L 484,683 L 485,683 L 486,684 L 487,684 L 488,685 L 489,685 L 490,686 L 491,686 L 492,687 L 493,687 L 494,688 L 495,688 L 496,689 L 498,689 L 499,690 L 501,690 L 502,691 L 504,691 L 505,692 L 507,692 L 508,693 L 510,693 L 511,694 L 514,694 L 515,695 L 519,695 L 520,696 L 526,696 L 527,697 L 532,697 L 533,698 L 680,698 L 681,697 L 683,699 L 684,699 L 688,703 L 689,703 L 694,708 L 695,708 L 699,712 L 700,712 L 704,716 L 705,716 L 710,721 L 711,721 L 716,726 L 717,726 L 721,730 L 722,730 L 726,734 L 727,734 L 731,738 L 732,738 L 737,743 L 738,743 L 742,747 L 743,747 L 747,751 L 748,751 L 753,756 L 754,756 L 758,760 L 759,760 L 764,765 L 765,765 L 768,768 L 769,768 L 775,774 L 776,774 L 777,775 L 778,775 L 779,776 L 783,776 L 784,777 L 789,777 L 790,776 L 793,776 L 794,775 L 795,775 L 796,774 L 797,774 L 799,772 L 800,772 L 801,771 L 801,770 L 803,768 L 803,767 L 805,765 L 805,763 L 806,762 L 806,755 L 807,754 L 807,692 L 808,691 L 809,691 L 810,690 L 812,690 L 813,689 L 814,689 L 815,688 L 816,688 L 817,687 L 819,687 L 820,686 L 821,686 L 822,685 L 823,685 L 824,684 L 825,684 L 826,683 L 827,683 L 829,681 L 830,681 L 831,680 L 832,680 L 834,678 L 835,678 L 837,676 L 838,676 L 841,673 L 842,673 L 845,670 L 846,670 L 862,654 L 862,653 L 865,650 L 865,649 L 868,646 L 868,645 L 870,643 L 870,642 L 871,641 L 871,640 L 873,638 L 873,637 L 874,636 L 874,635 L 876,633 L 876,632 L 877,631 L 877,630 L 878,629 L 878,627 L 879,626 L 879,625 L 880,624 L 880,623 L 881,622 L 881,620 L 882,619 L 882,618 L 883,617 L 883,615 L 884,614 L 884,612 L 885,611 L 885,608 L 886,607 L 886,604 L 887,603 L 887,599 L 888,598 L 888,590 L 889,589 L 889,475 L 888,474 L 888,473 L 889,472 L 888,471 L 888,467 L 887,466 L 888,465 L 887,464 L 887,462 L 886,461 L 887,460 L 886,459 L 886,457 L 885,456 L 885,453 L 884,452 L 884,449 L 883,448 L 883,447 L 882,446 L 882,444 L 881,443 L 881,441 L 880,440 L 880,439 L 879,438 L 879,437 L 878,436 L 878,434 L 877,433 L 877,432 L 876,431 L 876,430 L 875,429 L 875,428 L 874,427 L 874,426 L 872,424 L 872,423 L 871,422 L 871,421 L 869,419 L 869,418 L 868,417 L 868,416 L 865,413 L 865,412 L 863,410 L 863,409 L 857,403 L 857,402 L 848,393 L 847,393 L 842,388 L 841,388 L 837,384 L 836,384 L 834,382 L 833,382 L 832,381 L 831,381 L 829,379 L 828,379 L 826,377 L 825,377 L 824,376 L 823,376 L 822,375 L 821,375 L 820,374 L 819,374 L 818,373 L 817,373 L 816,372 L 815,372 L 814,371 L 813,371 L 812,370 L 810,370 L 809,369 L 807,369 L 806,368 L 805,368 L 804,367 L 802,367 L 801,366 L 798,366 L 797,365 L 795,365 L 794,364 L 790,364 L 789,363 L 785,363 L 784,362 L 779,362 L 778,361 L 598,361 L 597,360 L 597,358 L 596,357 L 596,353 L 595,352 L 595,350 L 594,349 L 594,347 L 593,346 L 593,344 L 592,343 L 592,341 L 591,340 L 591,339 L 590,338 L 590,336 L 589,335 L 589,334 L 588,333 L 588,332 L 587,331 L 587,330 L 586,329 L 586,328 L 585,327 L 585,326 L 583,324 L 583,323 L 582,322 L 582,321 L 580,319 L 580,318 L 578,316 L 578,315 L 575,312 L 575,311 L 572,308 L 572,307 L 555,290 L 554,290 L 551,287 L 550,287 L 547,284 L 546,284 L 544,282 L 543,282 L 542,281 L 541,281 L 539,279 L 538,279 L 537,278 L 536,278 L 534,276 L 533,276 L 532,275 L 531,275 L 530,274 L 528,274 L 527,273 L 526,273 L 525,272 L 524,272 L 523,271 L 521,271 L 520,270 L 518,270 L 517,269 L 515,269 L 514,268 L 512,268 L 511,267 L 508,267 L 507,266 L 505,266 L 504,265 L 500,265 L 499,264 L 498,265 L 497,264 L 491,264 L 490,263 L 483,263 L 482,262 Z" fill="navy" /></svg>